<svg xmlns="http://www.w3.org/2000/svg" viewBox="0 0 100 100">
<!-- SVG created with Arrow, by QuiverAI (https://quiver.ai) -->
  <style type="text/css">.cls-0 {fill:#FEF7EA;}</style>
  <path class="cls-0" d="m97.8 15.2-21.1-13.1c-1.1-0.7-2.5-0.7-3.7-0.1l-22.5 11.5-21.2-11.8c-1.1-0.6-2.4-0.6-3.5 0.1l-22.6 13.2c-1.2 0.7-1.8 1.9-1.8 3.2l0.1 41.8c0 5.1 4.3 13.6 11.2 13.6h10.9v7.5c0 1.4 0.7 2.7 1.9 3.5l23.2 14.1c1.3 0.8 3 0.9 4.4 0.1l23.3-13.9c1.2-0.7 2.1-2 2.1-3.5v-7.8h9.8c4.4 0 10.8-3.9 10.8-13l0.2-42.2c0.1-1.3-0.5-2.5-1.5-3.2zm-24.2-5.3 13.7 8.5-14 7.9-14.1-7.9 14.4-8.5zm-46.4 0 36.8 21.3-13.6 9.6-37.1-22.6 13.9-8.3zm-18.4 49v-33.3l37.6 23.2v14.7h-33.1c-2.6-0.1-4.5-1.9-4.5-4.6zm24.1 14.7h13.5v13.5l-13.5-8.3v-5.2zm22.4 13.5v-39.1l14-8.3v39.1l-14 8.3zm32-23.7h-8.9l0.1-29.8 13.1-7.9v33.2c0 2.4-2 4.5-4.3 4.5z"/>
</svg>