<svg xmlns="http://www.w3.org/2000/svg" width="24" height="24" fill="none" viewBox="0 0 24 24">
<!-- SVG created with Arrow, by QuiverAI (https://quiver.ai) -->
  <path d="m22.75 3.92-4.94-3.02c-0.35-0.22-0.83-0.21-1.19 0.03l-4.66 2.77-4.67-2.8c-0.35-0.22-0.8-0.21-1.15 0.02l-4.92 3.05c-0.33 0.21-0.5 0.52-0.5 0.89v9.1c0 1.67 1.37 3.14 3.04 3.14h2.12v2.13c0 0.42 0.21 0.78 0.58 0.99l4.92 2.92c0.18 0.1 0.38 0.16 0.58 0.16 0.21 0 0.41-0.06 0.59-0.17l4.96-3.04c0.33-0.21 0.53-0.56 0.53-0.94v-2.05h2.12c1.69 0 3.12-1.48 3.12-3.19v-9.05c0-0.39-0.19-0.74-0.53-0.94zm-5.58-1 3.05 1.89-3.16 1.85-3.14-1.83 3.25-1.91zm-10.44 0.01 8.31 4.99-3.08 1.77-8.28-4.9 3.05-1.86zm-4.01 11.03v-7.4l8.24 4.87v3.67h-7.2c-0.58 0-1.04-0.57-1.04-1.14zm5.24 4.71v-1.57h3v3.39l-3-1.82zm5.05 1.83v-9.08l3.03-1.81v9.06l-3.03 1.83zm8.12-6.59c0 0.6-0.49 1.19-1.07 1.19h-1.98v-6.67l3.05-1.87v7.35z" fill="#000"/>
</svg>